<svg width="25" height="25" fill="none" xmlns="http://www.w3.org/2000/svg"><path d="m8.995 14.831 2.78-6.402h.932v1.811l-1.972 4.591h1.47v-.824c0-.201.335-.216.502-.198v2.529c-.459 0-.526-.155-.502-.233v-.718h-1.74L6.162 25H6l1.094-3.318s-.968-.376-.646-1.183c.323-.807 2.26-5.112 2.26-5.112h-2.26v-.556h2.547Z" fill="#333"/><path d="M16.24 14.831 13.46 8.43h-.932v1.811l1.973 4.591h-1.47v-.824c0-.201-.336-.216-.503-.198v2.529c.46 0 .526-.155.502-.233v-.718h1.74L19.074 25h.161l-1.094-3.318s.969-.376.646-1.183c-.323-.807-2.26-5.112-2.26-5.112h2.26v-.556H16.24Z" fill="#333"/><path fill-rule="evenodd" clip-rule="evenodd" d="M12.636 7.496a1.901 1.901 0 1 0 0-3.802 1.901 1.901 0 0 0 0 3.802Zm0 1.04a2.941 2.941 0 1 0 0-5.882 2.941 2.941 0 0 0 0 5.883Z" fill="#333"/><path d="M12.098 0h1.076v2.834h-1.076V0Z" fill="#333"/></svg>